<svg xmlns="http://www.w3.org/2000/svg" xmlns:xlink="http://www.w3.org/1999/xlink" width="118" zoomAndPan="magnify" viewBox="0 0 88.5 34.499999" height="46" preserveAspectRatio="xMidYMid meet" version="1.0"><defs><g/><clipPath id="1e51f0713b"><path d="M 0.386719 0 L 87.621094 0 L 87.621094 34.007812 L 0.386719 34.007812 Z M 0.386719 0 " clip-rule="nonzero"/></clipPath><clipPath id="d2c29beea0"><path d="M 32 6 L 87.621094 6 L 87.621094 8 L 32 8 Z M 32 6 " clip-rule="nonzero"/></clipPath><clipPath id="7fb714a98b"><path d="M 86 5 L 87.621094 5 L 87.621094 31 L 86 31 Z M 86 5 " clip-rule="nonzero"/></clipPath><clipPath id="d7550d86f2"><path d="M 0.386719 29 L 87.621094 29 L 87.621094 31 L 0.386719 31 Z M 0.386719 29 " clip-rule="nonzero"/></clipPath><clipPath id="3838219464"><path d="M 0.386719 6 L 2 6 L 2 31 L 0.386719 31 Z M 0.386719 6 " clip-rule="nonzero"/></clipPath><clipPath id="ec55c78c05"><path d="M 0.386719 6 L 20 6 L 20 8 L 0.386719 8 Z M 0.386719 6 " clip-rule="nonzero"/></clipPath><clipPath id="f5953c7ea1"><path d="M 1 0 L 32 0 L 32 28 L 1 28 Z M 1 0 " clip-rule="nonzero"/></clipPath><clipPath id="1d984ea6b3"><path d="M 0.585938 3.261719 L 31.507812 0.0078125 L 34.296875 26.511719 L 3.375 29.765625 Z M 0.585938 3.261719 " clip-rule="nonzero"/></clipPath><clipPath id="cdfb4e2780"><path d="M 0.585938 3.261719 L 31.507812 0.0078125 L 34.296875 26.511719 L 3.375 29.765625 Z M 0.585938 3.261719 " clip-rule="nonzero"/></clipPath></defs><g clip-path="url(#1e51f0713b)"><path fill="#ffffff" d="M 0.386719 0 L 87.621094 0 L 87.621094 34.007812 L 0.386719 34.007812 Z M 0.386719 0 " fill-opacity="1" fill-rule="nonzero"/><path fill="#3c4b64" d="M 0.386719 0 L 87.621094 0 L 87.621094 34.007812 L 0.386719 34.007812 Z M 0.386719 0 " fill-opacity="1" fill-rule="nonzero"/></g><g fill="#ffffff" fill-opacity="1"><g transform="translate(22.141297, 21.987672)"><g><path d="M 6.085938 -8.195312 L 0.277344 -8.195312 L 0.277344 -5.820312 L 0.652344 -5.820312 L 1 -7.652344 L 2.652344 -7.652344 L 2.652344 -0.566406 L 1.640625 -0.335938 L 1.640625 0 L 4.722656 0 L 4.722656 -0.335938 L 3.710938 -0.566406 L 3.710938 -7.652344 L 5.363281 -7.652344 L 5.710938 -5.820312 L 6.085938 -5.820312 Z M 6.085938 -8.195312 "/></g></g></g><g fill="#ffffff" fill-opacity="1"><g transform="translate(29.105275, 21.987672)"><g><path d="M 4.351562 -1.46875 C 3.964844 -0.820312 3.445312 -0.433594 2.867188 -0.433594 C 1.988281 -0.433594 1.480469 -1.324219 1.46875 -2.832031 L 4.640625 -2.832031 C 4.640625 -4.652344 4.023438 -5.785156 2.710938 -5.785156 C 1.300781 -5.785156 0.480469 -4.664062 0.480469 -2.734375 C 0.480469 -0.914062 1.3125 0.167969 2.734375 0.167969 C 3.53125 0.167969 4.242188 -0.386719 4.664062 -1.300781 Z M 2.675781 -5.375 C 3.3125 -5.375 3.664062 -4.601562 3.675781 -3.277344 L 1.480469 -3.21875 C 1.542969 -4.578125 1.964844 -5.375 2.675781 -5.375 Z M 2.675781 -5.375 "/></g></g></g><g fill="#ffffff" fill-opacity="1"><g transform="translate(34.85239, 21.987672)"><g><path d="M 4.242188 -0.492188 L 4.242188 -4.097656 C 4.242188 -5.277344 3.566406 -5.785156 2.433594 -5.785156 C 1.878906 -5.785156 1.289062 -5.589844 0.878906 -5.335938 L 0.878906 -3.867188 L 1.253906 -3.867188 L 1.601562 -5.167969 C 1.796875 -5.277344 2.058594 -5.363281 2.300781 -5.363281 C 2.976562 -5.363281 3.300781 -4.902344 3.300781 -4.023438 L 3.300781 -3.207031 L 3.289062 -3.207031 C 1.375 -3.207031 0.398438 -2.421875 0.398438 -1.242188 C 0.398438 -0.335938 0.953125 0.167969 1.785156 0.167969 C 2.710938 0.167969 3.191406 -0.710938 3.324219 -1.335938 L 3.363281 -1.335938 L 3.433594 0.121094 L 5.011719 -0.144531 L 5.011719 -0.421875 Z M 2.011719 -0.542969 C 1.589844 -0.542969 1.347656 -0.878906 1.347656 -1.398438 C 1.347656 -2.289062 1.964844 -2.832031 3.300781 -2.84375 C 3.265625 -1.554688 2.746094 -0.542969 2.011719 -0.542969 Z M 2.011719 -0.542969 "/></g></g></g><g fill="#ffffff" fill-opacity="1"><g transform="translate(40.683845, 21.987672)"><g><path d="M 8.023438 -0.519531 L 8.023438 -4.3125 C 8.023438 -5.289062 7.578125 -5.785156 6.675781 -5.785156 C 5.734375 -5.785156 5.191406 -4.84375 5.0625 -4.253906 L 5.023438 -4.253906 C 4.988281 -5.230469 4.542969 -5.785156 3.699219 -5.785156 C 2.722656 -5.785156 2.230469 -4.84375 2.097656 -4.253906 L 2.058594 -4.253906 L 1.976562 -5.734375 L 0.300781 -5.445312 L 0.300781 -5.167969 L 1.121094 -5.109375 L 1.121094 -0.507812 L 0.300781 -0.300781 L 0.300781 0 L 2.769531 0 L 2.769531 -0.300781 L 2.058594 -0.507812 L 2.058594 -2.398438 C 2.058594 -3.796875 2.722656 -5.230469 3.421875 -5.230469 C 3.976562 -5.230469 4.109375 -4.746094 4.109375 -4 L 4.109375 0 L 5.820312 0 L 5.820312 -0.300781 L 5.046875 -0.53125 L 5.046875 -2.410156 C 5.046875 -3.808594 5.699219 -5.21875 6.421875 -5.21875 C 6.902344 -5.21875 7.085938 -4.902344 7.085938 -4.207031 L 7.085938 0 L 8.84375 0 L 8.84375 -0.300781 Z M 8.023438 -0.519531 "/></g></g></g><g fill="#ffffff" fill-opacity="1"><g transform="translate(50.310466, 21.987672)"><g><path d="M 10.773438 -8.195312 L 8.265625 -8.195312 L 8.265625 -7.867188 L 9.253906 -7.640625 L 7.785156 -1.242188 L 7.757812 -1.242188 L 7.339844 -3.289062 L 6.121094 -8.230469 L 5.121094 -8.0625 L 3.480469 -1.242188 L 3.445312 -1.242188 L 3.023438 -3.351562 L 1.976562 -7.664062 L 2.914062 -7.867188 L 2.914062 -8.195312 L 0.109375 -8.195312 L 0.109375 -7.867188 L 0.855469 -7.6875 L 2.902344 0.167969 L 3.699219 0 L 5.351562 -6.929688 L 5.375 -6.929688 L 7.167969 0.167969 L 7.964844 0 L 10 -7.652344 L 10.773438 -7.867188 Z M 10.773438 -8.195312 "/></g></g></g><g fill="#ffffff" fill-opacity="1"><g transform="translate(61.720214, 21.987672)"><g><path d="M 2.785156 0.167969 C 4.265625 0.167969 5.132812 -0.988281 5.132812 -2.890625 C 5.132812 -4.722656 4.277344 -5.785156 2.832031 -5.785156 C 1.347656 -5.785156 0.480469 -4.625 0.480469 -2.664062 C 0.480469 -0.890625 1.335938 0.167969 2.785156 0.167969 Z M 2.832031 -0.265625 C 1.964844 -0.265625 1.480469 -1.191406 1.480469 -2.757812 C 1.480469 -4.445312 1.964844 -5.375 2.785156 -5.375 C 3.652344 -5.375 4.144531 -4.433594 4.144531 -2.796875 C 4.144531 -1.191406 3.652344 -0.265625 2.832031 -0.265625 Z M 2.832031 -0.265625 "/></g></g></g><g fill="#ffffff" fill-opacity="1"><g transform="translate(67.949257, 21.987672)"><g><path d="M 3.542969 -5.785156 C 2.578125 -5.785156 2.179688 -4.710938 2.035156 -3.941406 L 2.011719 -3.941406 L 1.941406 -5.734375 L 0.300781 -5.445312 L 0.300781 -5.167969 L 1.121094 -5.109375 L 1.121094 -0.507812 L 0.300781 -0.300781 L 0.300781 0 L 2.941406 0 L 2.941406 -0.300781 L 2.058594 -0.507812 L 2.058594 -2.109375 C 2.058594 -3.410156 2.613281 -5.324219 3.480469 -5.324219 L 3.53125 -5.324219 L 3.84375 -3.867188 L 4.21875 -3.867188 L 4.21875 -5.601562 C 4.035156 -5.710938 3.820312 -5.785156 3.542969 -5.785156 Z M 3.542969 -5.785156 "/></g></g></g><g fill="#ffffff" fill-opacity="1"><g transform="translate(72.961436, 21.987672)"><g><path d="M 4.929688 -0.46875 L 3.207031 -3.566406 L 4.601562 -5.144531 L 5.324219 -5.324219 L 5.324219 -5.628906 L 3.3125 -5.628906 L 3.3125 -5.324219 L 3.902344 -5.144531 L 2.023438 -2.796875 L 2.023438 -8.929688 L 0.265625 -8.601562 L 0.265625 -8.324219 L 1.085938 -8.265625 L 1.085938 -0.507812 L 0.265625 -0.300781 L 0.265625 0 L 2.6875 0 L 2.6875 -0.300781 L 2.023438 -0.492188 L 2.023438 -2.203125 L 2.601562 -2.867188 L 3.300781 -1.421875 L 4.109375 0 L 5.613281 0 L 5.613281 -0.300781 Z M 4.929688 -0.46875 "/></g></g></g><g fill="#ffffff" fill-opacity="1"><g transform="translate(79.214575, 21.987672)"><g><path d="M 1.363281 0.167969 C 1.722656 0.167969 1.964844 -0.132812 1.964844 -0.480469 C 1.964844 -0.832031 1.722656 -1.121094 1.363281 -1.121094 C 1 -1.121094 0.757812 -0.832031 0.757812 -0.480469 C 0.757812 -0.132812 1 0.167969 1.363281 0.167969 Z M 1.363281 0.167969 "/></g></g></g><g fill="#ffffff" fill-opacity="1"><g transform="translate(63.391855, 26.651458)"><g><path d="M 0.6875 0.015625 C 0.570312 0.015625 0.46875 -0.0078125 0.375 -0.0625 C 0.28125 -0.113281 0.207031 -0.179688 0.15625 -0.265625 C 0.101562 -0.359375 0.078125 -0.460938 0.078125 -0.578125 C 0.078125 -0.679688 0.101562 -0.78125 0.15625 -0.875 C 0.207031 -0.96875 0.28125 -1.035156 0.375 -1.078125 C 0.46875 -1.128906 0.570312 -1.15625 0.6875 -1.15625 C 0.78125 -1.15625 0.863281 -1.140625 0.9375 -1.109375 C 1.007812 -1.085938 1.070312 -1.046875 1.125 -0.984375 L 1.015625 -0.875 C 0.929688 -0.96875 0.820312 -1.015625 0.6875 -1.015625 C 0.601562 -1.015625 0.523438 -0.992188 0.453125 -0.953125 C 0.390625 -0.921875 0.335938 -0.867188 0.296875 -0.796875 C 0.265625 -0.734375 0.25 -0.660156 0.25 -0.578125 C 0.25 -0.492188 0.265625 -0.414062 0.296875 -0.34375 C 0.335938 -0.28125 0.390625 -0.226562 0.453125 -0.1875 C 0.523438 -0.15625 0.601562 -0.140625 0.6875 -0.140625 C 0.820312 -0.140625 0.929688 -0.179688 1.015625 -0.265625 L 1.125 -0.171875 C 1.070312 -0.109375 1.003906 -0.0625 0.921875 -0.03125 C 0.847656 0 0.769531 0.015625 0.6875 0.015625 Z M 0.6875 0.015625 "/></g></g></g><g fill="#ffffff" fill-opacity="1"><g transform="translate(65.406775, 26.651458)"><g><path d="M 0.6875 0.015625 C 0.570312 0.015625 0.46875 -0.0078125 0.375 -0.0625 C 0.28125 -0.113281 0.207031 -0.179688 0.15625 -0.265625 C 0.101562 -0.359375 0.078125 -0.460938 0.078125 -0.578125 C 0.078125 -0.679688 0.101562 -0.78125 0.15625 -0.875 C 0.207031 -0.96875 0.28125 -1.035156 0.375 -1.078125 C 0.46875 -1.128906 0.570312 -1.15625 0.6875 -1.15625 C 0.800781 -1.15625 0.90625 -1.128906 1 -1.078125 C 1.09375 -1.035156 1.164062 -0.96875 1.21875 -0.875 C 1.269531 -0.78125 1.296875 -0.679688 1.296875 -0.578125 C 1.296875 -0.460938 1.269531 -0.359375 1.21875 -0.265625 C 1.164062 -0.179688 1.09375 -0.113281 1 -0.0625 C 0.90625 -0.0078125 0.800781 0.015625 0.6875 0.015625 Z M 0.6875 -0.140625 C 0.769531 -0.140625 0.84375 -0.15625 0.90625 -0.1875 C 0.976562 -0.226562 1.035156 -0.28125 1.078125 -0.34375 C 1.117188 -0.414062 1.140625 -0.492188 1.140625 -0.578125 C 1.140625 -0.660156 1.117188 -0.734375 1.078125 -0.796875 C 1.035156 -0.867188 0.976562 -0.921875 0.90625 -0.953125 C 0.84375 -0.992188 0.769531 -1.015625 0.6875 -1.015625 C 0.601562 -1.015625 0.523438 -0.992188 0.453125 -0.953125 C 0.390625 -0.921875 0.335938 -0.867188 0.296875 -0.796875 C 0.265625 -0.734375 0.25 -0.660156 0.25 -0.578125 C 0.25 -0.492188 0.265625 -0.414062 0.296875 -0.34375 C 0.335938 -0.28125 0.390625 -0.226562 0.453125 -0.1875 C 0.523438 -0.15625 0.601562 -0.140625 0.6875 -0.140625 Z M 0.6875 -0.140625 "/></g></g></g><g fill="#ffffff" fill-opacity="1"><g transform="translate(67.614457, 26.651458)"><g><path d="M 0.171875 -1.140625 L 0.34375 -1.140625 L 0.34375 -0.140625 L 0.953125 -0.140625 L 0.953125 0 L 0.171875 0 Z M 0.171875 -1.140625 "/></g></g></g><g fill="#ffffff" fill-opacity="1"><g transform="translate(69.416846, 26.651458)"><g><path d="M 0.171875 -1.140625 L 0.34375 -1.140625 L 0.34375 -0.140625 L 0.953125 -0.140625 L 0.953125 0 L 0.171875 0 Z M 0.171875 -1.140625 "/></g></g></g><g fill="#ffffff" fill-opacity="1"><g transform="translate(71.219236, 26.651458)"><g><path d="M 0.90625 -0.28125 L 0.296875 -0.28125 L 0.171875 0 L 0 0 L 0.515625 -1.140625 L 0.6875 -1.140625 L 1.203125 0 L 1.03125 0 Z M 0.84375 -0.421875 L 0.59375 -0.984375 L 0.34375 -0.421875 Z M 0.84375 -0.421875 "/></g></g></g><g fill="#ffffff" fill-opacity="1"><g transform="translate(73.248983, 26.651458)"><g><path d="M 0.9375 -0.59375 C 1.007812 -0.570312 1.0625 -0.535156 1.09375 -0.484375 C 1.132812 -0.441406 1.15625 -0.382812 1.15625 -0.3125 C 1.15625 -0.207031 1.117188 -0.128906 1.046875 -0.078125 C 0.972656 -0.0234375 0.863281 0 0.71875 0 L 0.171875 0 L 0.171875 -1.140625 L 0.6875 -1.140625 C 0.820312 -1.140625 0.921875 -1.113281 0.984375 -1.0625 C 1.054688 -1.007812 1.09375 -0.9375 1.09375 -0.84375 C 1.09375 -0.789062 1.078125 -0.738281 1.046875 -0.6875 C 1.023438 -0.644531 0.988281 -0.613281 0.9375 -0.59375 Z M 0.34375 -1.015625 L 0.34375 -0.640625 L 0.671875 -0.640625 C 0.753906 -0.640625 0.816406 -0.65625 0.859375 -0.6875 C 0.910156 -0.71875 0.9375 -0.765625 0.9375 -0.828125 C 0.9375 -0.890625 0.910156 -0.9375 0.859375 -0.96875 C 0.816406 -1 0.753906 -1.015625 0.671875 -1.015625 Z M 0.71875 -0.140625 C 0.8125 -0.140625 0.878906 -0.148438 0.921875 -0.171875 C 0.972656 -0.203125 1 -0.253906 1 -0.328125 C 1 -0.453125 0.90625 -0.515625 0.71875 -0.515625 L 0.34375 -0.515625 L 0.34375 -0.140625 Z M 0.71875 -0.140625 "/></g></g></g><g fill="#ffffff" fill-opacity="1"><g transform="translate(75.319919, 26.651458)"><g><path d="M 0.6875 0.015625 C 0.570312 0.015625 0.46875 -0.0078125 0.375 -0.0625 C 0.28125 -0.113281 0.207031 -0.179688 0.15625 -0.265625 C 0.101562 -0.359375 0.078125 -0.460938 0.078125 -0.578125 C 0.078125 -0.679688 0.101562 -0.78125 0.15625 -0.875 C 0.207031 -0.96875 0.28125 -1.035156 0.375 -1.078125 C 0.46875 -1.128906 0.570312 -1.15625 0.6875 -1.15625 C 0.800781 -1.15625 0.90625 -1.128906 1 -1.078125 C 1.09375 -1.035156 1.164062 -0.96875 1.21875 -0.875 C 1.269531 -0.78125 1.296875 -0.679688 1.296875 -0.578125 C 1.296875 -0.460938 1.269531 -0.359375 1.21875 -0.265625 C 1.164062 -0.179688 1.09375 -0.113281 1 -0.0625 C 0.90625 -0.0078125 0.800781 0.015625 0.6875 0.015625 Z M 0.6875 -0.140625 C 0.769531 -0.140625 0.84375 -0.15625 0.90625 -0.1875 C 0.976562 -0.226562 1.035156 -0.28125 1.078125 -0.34375 C 1.117188 -0.414062 1.140625 -0.492188 1.140625 -0.578125 C 1.140625 -0.660156 1.117188 -0.734375 1.078125 -0.796875 C 1.035156 -0.867188 0.976562 -0.921875 0.90625 -0.953125 C 0.84375 -0.992188 0.769531 -1.015625 0.6875 -1.015625 C 0.601562 -1.015625 0.523438 -0.992188 0.453125 -0.953125 C 0.390625 -0.921875 0.335938 -0.867188 0.296875 -0.796875 C 0.265625 -0.734375 0.25 -0.660156 0.25 -0.578125 C 0.25 -0.492188 0.265625 -0.414062 0.296875 -0.34375 C 0.335938 -0.28125 0.390625 -0.226562 0.453125 -0.1875 C 0.523438 -0.15625 0.601562 -0.140625 0.6875 -0.140625 Z M 0.6875 -0.140625 "/></g></g></g><g fill="#ffffff" fill-opacity="1"><g transform="translate(77.527601, 26.651458)"><g><path d="M 0.9375 0 L 0.6875 -0.359375 C 0.65625 -0.347656 0.632812 -0.34375 0.625 -0.34375 L 0.34375 -0.34375 L 0.34375 0 L 0.171875 0 L 0.171875 -1.140625 L 0.625 -1.140625 C 0.769531 -1.140625 0.882812 -1.101562 0.96875 -1.03125 C 1.050781 -0.96875 1.09375 -0.875 1.09375 -0.75 C 1.09375 -0.65625 1.070312 -0.578125 1.03125 -0.515625 C 0.988281 -0.453125 0.925781 -0.410156 0.84375 -0.390625 L 1.125 0 Z M 0.609375 -0.484375 C 0.710938 -0.484375 0.789062 -0.503906 0.84375 -0.546875 C 0.90625 -0.597656 0.9375 -0.664062 0.9375 -0.75 C 0.9375 -0.832031 0.90625 -0.894531 0.84375 -0.9375 C 0.789062 -0.976562 0.710938 -1 0.609375 -1 L 0.34375 -1 L 0.34375 -0.484375 Z M 0.609375 -0.484375 "/></g></g></g><g fill="#ffffff" fill-opacity="1"><g transform="translate(79.549111, 26.651458)"><g><path d="M 0.90625 -0.28125 L 0.296875 -0.28125 L 0.171875 0 L 0 0 L 0.515625 -1.140625 L 0.6875 -1.140625 L 1.203125 0 L 1.03125 0 Z M 0.84375 -0.421875 L 0.59375 -0.984375 L 0.34375 -0.421875 Z M 0.84375 -0.421875 "/></g></g></g><g fill="#ffffff" fill-opacity="1"><g transform="translate(81.578858, 26.651458)"><g><path d="M 0.40625 -1 L 0 -1 L 0 -1.140625 L 0.953125 -1.140625 L 0.953125 -1 L 0.5625 -1 L 0.5625 0 L 0.40625 0 Z M 0.40625 -1 "/></g></g></g><g fill="#ffffff" fill-opacity="1"><g transform="translate(83.369715, 26.651458)"><g><path d="M 1 -0.140625 L 1 0 L 0.171875 0 L 0.171875 -1.140625 L 0.984375 -1.140625 L 0.984375 -1 L 0.34375 -1 L 0.34375 -0.65625 L 0.90625 -0.65625 L 0.90625 -0.515625 L 0.34375 -0.515625 L 0.34375 -0.140625 Z M 1 -0.140625 "/></g></g></g><g clip-path="url(#d2c29beea0)"><path stroke-linecap="butt" transform="matrix(0.177662, -0.000000000000000022, 0.000000000000000022, 0.177662, 33.066499, 6.174606)" fill="none" stroke-linejoin="miter" d="M -0.000520684 2.491148 L 303.574014 2.491148 " stroke="#f6e0f4" stroke-width="5" stroke-opacity="1" stroke-miterlimit="4"/></g><g clip-path="url(#7fb714a98b)"><path stroke-linecap="butt" transform="matrix(0, -0.177662, 0.177662, 0, 86.133749, 30.012729)" fill="none" stroke-linejoin="miter" d="M 0.00568726 2.501246 L 133.268905 2.501246 " stroke="#f6e0f4" stroke-width="5" stroke-opacity="1" stroke-miterlimit="4"/></g><g clip-path="url(#d7550d86f2)"><path stroke-linecap="butt" transform="matrix(-0.177662, 0, 0, -0.177662, 86.999667, 30.457093)" fill="none" stroke-linejoin="miter" d="M -0.00187607 2.506865 L 487.427968 2.506865 " stroke="#ffffff" stroke-width="5" stroke-opacity="1" stroke-miterlimit="4"/></g><g clip-path="url(#3838219464)"><path stroke-linecap="butt" transform="matrix(0.000000000310078, -0.177662, 0.177662, 0.000000000310078, 0.385508, 30.295179)" fill="none" stroke-linejoin="miter" d="M -0.00954565 2.491345 L 133.27566 2.491345 " stroke="#f6e0f4" stroke-width="5" stroke-opacity="1" stroke-miterlimit="4"/></g><g clip-path="url(#ec55c78c05)"><path stroke-linecap="butt" transform="matrix(-0.177662, 0.000000000310078, -0.000000000310078, -0.177662, 19.185606, 7.062915)" fill="none" stroke-linejoin="miter" d="M -0.0106628 2.508855 L 105.702842 2.508855 " stroke="#f6e0f4" stroke-width="5" stroke-opacity="1" stroke-miterlimit="4"/></g><g clip-path="url(#f5953c7ea1)"><g clip-path="url(#1d984ea6b3)"><g clip-path="url(#cdfb4e2780)"><path fill="#ffffff" d="M 31.5625 0.00390625 C 22.933594 4.296875 16.910156 11.292969 12.5625 19.777344 C 10.390625 15.109375 6.707031 10 1.917969 15.675781 C 3.042969 15.738281 6.5625 16.828125 10.769531 27.148438 C 10.910156 27.34375 12.082031 28.8125 14.660156 27.007812 C 14.753906 26.921875 15.671875 26.089844 16.386719 25.136719 C 16.789062 24.601562 17.027344 24.066406 17.160156 23.410156 C 18.890625 14.804688 26.125 6.730469 31.5625 0.00390625 Z M 31.5625 0.00390625 " fill-opacity="1" fill-rule="nonzero"/></g></g></g></svg>