<svg xmlns="http://www.w3.org/2000/svg" xmlns:xlink="http://www.w3.org/1999/xlink" width="500" zoomAndPan="magnify" viewBox="0 0 375 374.999991" height="500" preserveAspectRatio="xMidYMid meet" version="1.0"><defs><g/><clipPath id="3027bdf0bd"><path d="M 95 150 L 175 150 L 175 225 L 95 225 Z M 95 150 " clip-rule="nonzero"/></clipPath><clipPath id="25b8868555"><path d="M 92.316406 159.515625 L 174.363281 150.882812 L 181.742188 220.996094 L 99.695312 229.628906 Z M 92.316406 159.515625 " clip-rule="nonzero"/></clipPath><clipPath id="da43790af3"><path d="M 92.316406 159.515625 L 174.363281 150.882812 L 181.742188 220.996094 L 99.695312 229.628906 Z M 92.316406 159.515625 " clip-rule="nonzero"/></clipPath></defs><g fill="#f6e0f4" fill-opacity="1"><g transform="translate(149.554169, 209.240069)"><g><path d="M 16.15625 -21.757812 L 0.734375 -21.757812 L 0.734375 -15.453125 L 1.726562 -15.453125 L 2.65625 -20.316406 L 7.039062 -20.316406 L 7.039062 -1.503906 L 4.351562 -0.894531 L 4.351562 0 L 12.542969 0 L 12.542969 -0.894531 L 9.855469 -1.503906 L 9.855469 -20.316406 L 14.238281 -20.316406 L 15.164062 -15.453125 L 16.15625 -15.453125 Z M 16.15625 -21.757812 "/></g></g></g><g fill="#f6e0f4" fill-opacity="1"><g transform="translate(168.046014, 209.240069)"><g><path d="M 11.550781 -3.902344 C 10.527344 -2.175781 9.152344 -1.152344 7.613281 -1.152344 C 5.277344 -1.152344 3.933594 -3.519531 3.902344 -7.519531 L 12.316406 -7.519531 C 12.316406 -12.351562 10.6875 -15.359375 7.199219 -15.359375 C 3.457031 -15.359375 1.28125 -12.382812 1.28125 -7.261719 C 1.28125 -2.429688 3.488281 0.449219 7.261719 0.449219 C 9.375 0.449219 11.261719 -1.023438 12.382812 -3.457031 Z M 7.101562 -14.269531 C 8.796875 -14.269531 9.726562 -12.222656 9.757812 -8.703125 L 3.933594 -8.542969 C 4.09375 -12.15625 5.214844 -14.269531 7.101562 -14.269531 Z M 7.101562 -14.269531 "/></g></g></g><g fill="#f6e0f4" fill-opacity="1"><g transform="translate(183.306653, 209.240069)"><g><path d="M 11.261719 -1.3125 L 11.261719 -10.878906 C 11.261719 -14.015625 9.46875 -15.359375 6.464844 -15.359375 C 4.992188 -15.359375 3.421875 -14.84375 2.335938 -14.171875 L 2.335938 -10.269531 L 3.328125 -10.269531 L 4.253906 -13.726562 C 4.765625 -14.015625 5.472656 -14.238281 6.109375 -14.238281 C 7.902344 -14.238281 8.765625 -13.023438 8.765625 -10.6875 L 8.765625 -8.511719 L 8.734375 -8.511719 C 3.648438 -8.511719 1.054688 -6.429688 1.054688 -3.296875 C 1.054688 -0.894531 2.527344 0.449219 4.734375 0.449219 C 7.199219 0.449219 8.480469 -1.886719 8.832031 -3.550781 L 8.925781 -3.550781 L 9.117188 0.320312 L 13.308594 -0.382812 L 13.308594 -1.121094 Z M 5.34375 -1.441406 C 4.222656 -1.441406 3.582031 -2.335938 3.582031 -3.710938 C 3.582031 -6.078125 5.214844 -7.519531 8.765625 -7.550781 C 8.671875 -4.128906 7.292969 -1.441406 5.34375 -1.441406 Z M 5.34375 -1.441406 "/></g></g></g><g fill="#f6e0f4" fill-opacity="1"><g transform="translate(198.791244, 209.240069)"><g><path d="M 21.308594 -1.375 L 21.308594 -11.453125 C 21.308594 -14.046875 20.125 -15.359375 17.726562 -15.359375 C 15.230469 -15.359375 13.789062 -12.863281 13.4375 -11.292969 L 13.34375 -11.292969 C 13.246094 -13.886719 12.0625 -15.359375 9.824219 -15.359375 C 7.230469 -15.359375 5.917969 -12.863281 5.566406 -11.292969 L 5.472656 -11.292969 L 5.246094 -15.230469 L 0.800781 -14.460938 L 0.800781 -13.726562 L 2.976562 -13.566406 L 2.976562 -1.34375 L 0.800781 -0.800781 L 0.800781 0 L 7.359375 0 L 7.359375 -0.800781 L 5.472656 -1.34375 L 5.472656 -6.367188 C 5.472656 -10.078125 7.230469 -13.886719 9.085938 -13.886719 C 10.558594 -13.886719 10.910156 -12.605469 10.910156 -10.621094 L 10.910156 0 L 15.453125 0 L 15.453125 -0.800781 L 13.40625 -1.40625 L 13.40625 -6.398438 C 13.40625 -10.109375 15.132812 -13.855469 17.054688 -13.855469 C 18.332031 -13.855469 18.8125 -13.023438 18.8125 -11.167969 L 18.8125 0 L 23.484375 0 L 23.484375 -0.800781 Z M 21.308594 -1.375 "/></g></g></g><g fill="#f6e0f4" fill-opacity="1"><g transform="translate(224.353355, 209.240069)"><g><path d="M 28.605469 -21.757812 L 21.949219 -21.757812 L 21.949219 -20.894531 L 24.570312 -20.285156 L 20.667969 -3.296875 L 20.605469 -3.296875 L 19.484375 -8.734375 L 16.253906 -21.851562 L 13.597656 -21.40625 L 9.246094 -3.296875 L 9.152344 -3.296875 L 8.03125 -8.894531 L 5.246094 -20.347656 L 7.742188 -20.894531 L 7.742188 -21.757812 L 0.289062 -21.757812 L 0.289062 -20.894531 L 2.273438 -20.414062 L 7.710938 0.449219 L 9.824219 0 L 14.207031 -18.398438 L 14.269531 -18.398438 L 19.035156 0.449219 L 21.148438 0 L 26.554688 -20.316406 L 28.605469 -20.894531 Z M 28.605469 -21.757812 "/></g></g></g><g fill="#f6e0f4" fill-opacity="1"><g transform="translate(254.650304, 209.240069)"><g><path d="M 7.390625 0.449219 C 11.328125 0.449219 13.628906 -2.625 13.628906 -7.679688 C 13.628906 -12.542969 11.359375 -15.359375 7.519531 -15.359375 C 3.582031 -15.359375 1.28125 -12.285156 1.28125 -7.070312 C 1.28125 -2.367188 3.550781 0.449219 7.390625 0.449219 Z M 7.519531 -0.703125 C 5.214844 -0.703125 3.933594 -3.167969 3.933594 -7.328125 C 3.933594 -11.804688 5.214844 -14.269531 7.390625 -14.269531 C 9.695312 -14.269531 11.007812 -11.773438 11.007812 -7.421875 C 11.007812 -3.167969 9.695312 -0.703125 7.519531 -0.703125 Z M 7.519531 -0.703125 "/></g></g></g><g fill="#f6e0f4" fill-opacity="1"><g transform="translate(271.190632, 209.240069)"><g><path d="M 9.40625 -15.359375 C 6.847656 -15.359375 5.792969 -12.511719 5.40625 -10.460938 L 5.34375 -10.460938 L 5.152344 -15.230469 L 0.800781 -14.460938 L 0.800781 -13.726562 L 2.976562 -13.566406 L 2.976562 -1.34375 L 0.800781 -0.800781 L 0.800781 0 L 7.808594 0 L 7.808594 -0.800781 L 5.472656 -1.34375 L 5.472656 -5.597656 C 5.472656 -9.054688 6.941406 -14.140625 9.246094 -14.140625 L 9.375 -14.140625 L 10.207031 -10.269531 L 11.199219 -10.269531 L 11.199219 -14.878906 C 10.71875 -15.164062 10.140625 -15.359375 9.40625 -15.359375 Z M 9.40625 -15.359375 "/></g></g></g><g fill="#f6e0f4" fill-opacity="1"><g transform="translate(284.499755, 209.240069)"><g><path d="M 13.085938 -1.246094 L 8.511719 -9.46875 L 12.222656 -13.660156 L 14.140625 -14.140625 L 14.140625 -14.941406 L 8.796875 -14.941406 L 8.796875 -14.140625 L 10.367188 -13.660156 L 5.375 -7.421875 L 5.375 -23.707031 L 0.703125 -22.84375 L 0.703125 -22.109375 L 2.878906 -21.949219 L 2.878906 -1.34375 L 0.703125 -0.800781 L 0.703125 0 L 7.136719 0 L 7.136719 -0.800781 L 5.375 -1.3125 L 5.375 -5.855469 L 6.910156 -7.613281 L 8.765625 -3.777344 L 10.910156 0 L 14.910156 0 L 14.910156 -0.800781 Z M 13.085938 -1.246094 "/></g></g></g><g fill="#f6e0f4" fill-opacity="1"><g transform="translate(301.104067, 209.240069)"><g><path d="M 3.617188 0.449219 C 4.574219 0.449219 5.214844 -0.351562 5.214844 -1.28125 C 5.214844 -2.207031 4.574219 -2.976562 3.617188 -2.976562 C 2.65625 -2.976562 2.015625 -2.207031 2.015625 -1.28125 C 2.015625 -0.351562 2.65625 0.449219 3.617188 0.449219 Z M 3.617188 0.449219 "/></g></g></g><g fill="#f6e0f4" fill-opacity="1"><g transform="translate(259.089116, 221.624104)"><g><path d="M 1.828125 0.03125 C 1.523438 0.03125 1.25 -0.0351562 1 -0.171875 C 0.75 -0.304688 0.550781 -0.488281 0.40625 -0.71875 C 0.269531 -0.957031 0.203125 -1.226562 0.203125 -1.53125 C 0.203125 -1.832031 0.269531 -2.097656 0.40625 -2.328125 C 0.550781 -2.566406 0.75 -2.753906 1 -2.890625 C 1.25 -3.023438 1.523438 -3.09375 1.828125 -3.09375 C 2.066406 -3.09375 2.285156 -3.050781 2.484375 -2.96875 C 2.679688 -2.894531 2.851562 -2.78125 3 -2.625 L 2.71875 -2.34375 C 2.476562 -2.582031 2.1875 -2.703125 1.84375 -2.703125 C 1.625 -2.703125 1.421875 -2.648438 1.234375 -2.546875 C 1.046875 -2.453125 0.898438 -2.3125 0.796875 -2.125 C 0.691406 -1.945312 0.640625 -1.75 0.640625 -1.53125 C 0.640625 -1.3125 0.691406 -1.109375 0.796875 -0.921875 C 0.898438 -0.742188 1.046875 -0.601562 1.234375 -0.5 C 1.421875 -0.40625 1.625 -0.359375 1.84375 -0.359375 C 2.1875 -0.359375 2.476562 -0.476562 2.71875 -0.71875 L 3 -0.453125 C 2.851562 -0.285156 2.679688 -0.160156 2.484375 -0.078125 C 2.285156 -0.00390625 2.066406 0.03125 1.828125 0.03125 Z M 1.828125 0.03125 "/></g></g></g><g fill="#f6e0f4" fill-opacity="1"><g transform="translate(264.439446, 221.624104)"><g><path d="M 1.84375 0.03125 C 1.53125 0.03125 1.25 -0.0351562 1 -0.171875 C 0.757812 -0.304688 0.566406 -0.492188 0.421875 -0.734375 C 0.273438 -0.972656 0.203125 -1.238281 0.203125 -1.53125 C 0.203125 -1.820312 0.273438 -2.085938 0.421875 -2.328125 C 0.566406 -2.566406 0.757812 -2.753906 1 -2.890625 C 1.25 -3.023438 1.53125 -3.09375 1.84375 -3.09375 C 2.144531 -3.09375 2.421875 -3.023438 2.671875 -2.890625 C 2.921875 -2.753906 3.113281 -2.566406 3.25 -2.328125 C 3.394531 -2.097656 3.46875 -1.832031 3.46875 -1.53125 C 3.46875 -1.226562 3.394531 -0.957031 3.25 -0.71875 C 3.113281 -0.488281 2.921875 -0.304688 2.671875 -0.171875 C 2.421875 -0.0351562 2.144531 0.03125 1.84375 0.03125 Z M 1.84375 -0.359375 C 2.0625 -0.359375 2.257812 -0.40625 2.4375 -0.5 C 2.625 -0.601562 2.769531 -0.742188 2.875 -0.921875 C 2.976562 -1.109375 3.03125 -1.3125 3.03125 -1.53125 C 3.03125 -1.75 2.976562 -1.945312 2.875 -2.125 C 2.769531 -2.3125 2.625 -2.453125 2.4375 -2.546875 C 2.257812 -2.648438 2.0625 -2.703125 1.84375 -2.703125 C 1.613281 -2.703125 1.40625 -2.648438 1.21875 -2.546875 C 1.039062 -2.453125 0.898438 -2.3125 0.796875 -2.125 C 0.691406 -1.945312 0.640625 -1.75 0.640625 -1.53125 C 0.640625 -1.3125 0.691406 -1.109375 0.796875 -0.921875 C 0.898438 -0.742188 1.039062 -0.601562 1.21875 -0.5 C 1.40625 -0.40625 1.613281 -0.359375 1.84375 -0.359375 Z M 1.84375 -0.359375 "/></g></g></g><g fill="#f6e0f4" fill-opacity="1"><g transform="translate(270.301628, 221.624104)"><g><path d="M 0.453125 -3.0625 L 0.890625 -3.0625 L 0.890625 -0.375 L 2.5625 -0.375 L 2.5625 0 L 0.453125 0 Z M 0.453125 -3.0625 "/></g></g></g><g fill="#f6e0f4" fill-opacity="1"><g transform="translate(275.087615, 221.624104)"><g><path d="M 0.453125 -3.0625 L 0.890625 -3.0625 L 0.890625 -0.375 L 2.5625 -0.375 L 2.5625 0 L 0.453125 0 Z M 0.453125 -3.0625 "/></g></g></g><g fill="#f6e0f4" fill-opacity="1"><g transform="translate(279.873601, 221.624104)"><g><path d="M 2.40625 -0.765625 L 0.78125 -0.765625 L 0.453125 0 L 0 0 L 1.375 -3.0625 L 1.8125 -3.0625 L 3.203125 0 L 2.75 0 Z M 2.25 -1.109375 L 1.59375 -2.609375 L 0.9375 -1.109375 Z M 2.25 -1.109375 "/></g></g></g><g fill="#f6e0f4" fill-opacity="1"><g transform="translate(285.263304, 221.624104)"><g><path d="M 2.515625 -1.59375 C 2.691406 -1.539062 2.832031 -1.445312 2.9375 -1.3125 C 3.039062 -1.1875 3.09375 -1.023438 3.09375 -0.828125 C 3.09375 -0.554688 2.992188 -0.347656 2.796875 -0.203125 C 2.597656 -0.0664062 2.304688 0 1.921875 0 L 0.453125 0 L 0.453125 -3.0625 L 1.828125 -3.0625 C 2.179688 -3.0625 2.453125 -2.988281 2.640625 -2.84375 C 2.835938 -2.707031 2.9375 -2.515625 2.9375 -2.265625 C 2.9375 -2.109375 2.894531 -1.972656 2.8125 -1.859375 C 2.738281 -1.742188 2.640625 -1.65625 2.515625 -1.59375 Z M 0.890625 -2.703125 L 0.890625 -1.734375 L 1.796875 -1.734375 C 2.015625 -1.734375 2.1875 -1.773438 2.3125 -1.859375 C 2.4375 -1.941406 2.5 -2.0625 2.5 -2.21875 C 2.5 -2.375 2.4375 -2.492188 2.3125 -2.578125 C 2.1875 -2.660156 2.015625 -2.703125 1.796875 -2.703125 Z M 1.90625 -0.359375 C 2.15625 -0.359375 2.34375 -0.394531 2.46875 -0.46875 C 2.59375 -0.550781 2.65625 -0.679688 2.65625 -0.859375 C 2.65625 -1.203125 2.40625 -1.375 1.90625 -1.375 L 0.890625 -1.375 L 0.890625 -0.359375 Z M 1.90625 -0.359375 "/></g></g></g><g fill="#f6e0f4" fill-opacity="1"><g transform="translate(290.762377, 221.624104)"><g><path d="M 1.84375 0.03125 C 1.53125 0.03125 1.25 -0.0351562 1 -0.171875 C 0.757812 -0.304688 0.566406 -0.492188 0.421875 -0.734375 C 0.273438 -0.972656 0.203125 -1.238281 0.203125 -1.53125 C 0.203125 -1.820312 0.273438 -2.085938 0.421875 -2.328125 C 0.566406 -2.566406 0.757812 -2.753906 1 -2.890625 C 1.25 -3.023438 1.53125 -3.09375 1.84375 -3.09375 C 2.144531 -3.09375 2.421875 -3.023438 2.671875 -2.890625 C 2.921875 -2.753906 3.113281 -2.566406 3.25 -2.328125 C 3.394531 -2.097656 3.46875 -1.832031 3.46875 -1.53125 C 3.46875 -1.226562 3.394531 -0.957031 3.25 -0.71875 C 3.113281 -0.488281 2.921875 -0.304688 2.671875 -0.171875 C 2.421875 -0.0351562 2.144531 0.03125 1.84375 0.03125 Z M 1.84375 -0.359375 C 2.0625 -0.359375 2.257812 -0.40625 2.4375 -0.5 C 2.625 -0.601562 2.769531 -0.742188 2.875 -0.921875 C 2.976562 -1.109375 3.03125 -1.3125 3.03125 -1.53125 C 3.03125 -1.75 2.976562 -1.945312 2.875 -2.125 C 2.769531 -2.3125 2.625 -2.453125 2.4375 -2.546875 C 2.257812 -2.648438 2.0625 -2.703125 1.84375 -2.703125 C 1.613281 -2.703125 1.40625 -2.648438 1.21875 -2.546875 C 1.039062 -2.453125 0.898438 -2.3125 0.796875 -2.125 C 0.691406 -1.945312 0.640625 -1.75 0.640625 -1.53125 C 0.640625 -1.3125 0.691406 -1.109375 0.796875 -0.921875 C 0.898438 -0.742188 1.039062 -0.601562 1.21875 -0.5 C 1.40625 -0.40625 1.613281 -0.359375 1.84375 -0.359375 Z M 1.84375 -0.359375 "/></g></g></g><g fill="#f6e0f4" fill-opacity="1"><g transform="translate(296.624559, 221.624104)"><g><path d="M 2.5 0 L 1.84375 -0.9375 C 1.757812 -0.9375 1.695312 -0.9375 1.65625 -0.9375 L 0.890625 -0.9375 L 0.890625 0 L 0.453125 0 L 0.453125 -3.0625 L 1.65625 -3.0625 C 2.050781 -3.0625 2.363281 -2.96875 2.59375 -2.78125 C 2.820312 -2.59375 2.9375 -2.332031 2.9375 -2 C 2.9375 -1.757812 2.875 -1.554688 2.75 -1.390625 C 2.632812 -1.222656 2.46875 -1.101562 2.25 -1.03125 L 2.984375 0 Z M 1.640625 -1.296875 C 1.921875 -1.296875 2.132812 -1.351562 2.28125 -1.46875 C 2.425781 -1.59375 2.5 -1.769531 2.5 -2 C 2.5 -2.21875 2.425781 -2.382812 2.28125 -2.5 C 2.132812 -2.625 1.921875 -2.6875 1.640625 -2.6875 L 0.890625 -2.6875 L 0.890625 -1.296875 Z M 1.640625 -1.296875 "/></g></g></g><g fill="#f6e0f4" fill-opacity="1"><g transform="translate(301.99239, 221.624104)"><g><path d="M 2.40625 -0.765625 L 0.78125 -0.765625 L 0.453125 0 L 0 0 L 1.375 -3.0625 L 1.8125 -3.0625 L 3.203125 0 L 2.75 0 Z M 2.25 -1.109375 L 1.59375 -2.609375 L 0.9375 -1.109375 Z M 2.25 -1.109375 "/></g></g></g><g fill="#f6e0f4" fill-opacity="1"><g transform="translate(307.382092, 221.624104)"><g><path d="M 1.0625 -2.6875 L 0.015625 -2.6875 L 0.015625 -3.0625 L 2.546875 -3.0625 L 2.546875 -2.6875 L 1.5 -2.6875 L 1.5 0 L 1.0625 0 Z M 1.0625 -2.6875 "/></g></g></g><g fill="#f6e0f4" fill-opacity="1"><g transform="translate(312.137456, 221.624104)"><g><path d="M 2.6875 -0.375 L 2.6875 0 L 0.453125 0 L 0.453125 -3.0625 L 2.625 -3.0625 L 2.625 -2.6875 L 0.890625 -2.6875 L 0.890625 -1.734375 L 2.4375 -1.734375 L 2.4375 -1.375 L 0.890625 -1.375 L 0.890625 -0.375 Z M 2.6875 -0.375 "/></g></g></g><path stroke-linecap="butt" transform="matrix(0.75, -0.000000000000000093, 0.000000000000000093, 0.75, 178.564476, 167.305141)" fill="none" stroke-linejoin="miter" d="M 0.0025737 1.499395 L 190.955711 1.499395 " stroke="#f6e0f4" stroke-width="3" stroke-opacity="1" stroke-miterlimit="4"/><path stroke-linecap="butt" transform="matrix(0, -0.75, 0.75, 0, 319.526614, 230.544755)" fill="none" stroke-linejoin="miter" d="M 0.00238201 1.500973 L 83.825304 1.500973 " stroke="#f6e0f4" stroke-width="3" stroke-opacity="1" stroke-miterlimit="4"/><path stroke-linecap="butt" transform="matrix(-0.75, 0, 0, -0.75, 321.773333, 231.674999)" fill="none" stroke-linejoin="miter" d="M -0.000139373 1.498957 L 306.588422 1.498957 " stroke="#f6e0f4" stroke-width="3" stroke-opacity="1" stroke-miterlimit="4"/><path stroke-linecap="butt" transform="matrix(0.000000001309, -0.75, 0.75, 0.000000001309, 91.834489, 231.294755)" fill="none" stroke-linejoin="miter" d="M 0.00238195 1.501932 L 83.825304 1.501931 " stroke="#f6e0f4" stroke-width="3" stroke-opacity="1" stroke-miterlimit="4"/><path stroke-linecap="butt" transform="matrix(-0.75, 0.000000001309, -0.000000001309, -0.75, 141.703018, 169.555141)" fill="none" stroke-linejoin="miter" d="M -0.00014321 1.500605 L 66.489444 1.500605 " stroke="#f6e0f4" stroke-width="3" stroke-opacity="1" stroke-miterlimit="4"/><g clip-path="url(#3027bdf0bd)"><g clip-path="url(#25b8868555)"><g clip-path="url(#da43790af3)"><path fill="#f6e0f4" d="M 174.570312 150.863281 C 151.652344 162.257812 135.664062 180.839844 124.117188 203.371094 C 118.347656 190.976562 108.574219 177.40625 95.851562 192.480469 C 98.835938 192.644531 108.183594 195.535156 119.359375 222.941406 C 119.734375 223.464844 122.84375 227.363281 129.6875 222.566406 C 129.9375 222.34375 132.375 220.132812 134.273438 217.601562 C 135.339844 216.179688 135.976562 214.753906 136.324219 213.015625 C 140.921875 190.167969 160.128906 168.726562 174.570312 150.863281 Z M 174.570312 150.863281 " fill-opacity="1" fill-rule="nonzero"/></g></g></g></svg>